<svg width="25" height="24" viewBox="0 0 25 24" fill="none" xmlns="http://www.w3.org/2000/svg">
<path d="M13.07 15.07L10.53 12.56L10.56 12.53C12.3 10.59 13.54 8.36 14.27 6H17.2V4H10.2V2H8.19995V4H1.19995V5.99H12.37C11.7 7.92 10.64 9.75 9.19995 11.35C8.26995 10.32 7.49995 9.19 6.88995 8H4.88995C5.61995 9.63 6.61995 11.17 7.86995 12.56L2.77995 17.58L4.19995 19L9.19995 14L12.31 17.11L13.07 15.07ZM18.7 10H16.7L12.2 22H14.2L15.32 19H20.07L21.2 22H23.2L18.7 10ZM16.08 17L17.7 12.67L19.32 17H16.08Z" fill="#BFBFBF"/>
</svg>
