<svg width="25" height="24" viewBox="0 0 25 24" fill="none" xmlns="http://www.w3.org/2000/svg">
<g id="translate">
<path id="Vector" d="M13.0702 15.07L10.5302 12.56L10.5602 12.53C12.3002 10.59 13.5402 8.36 14.2702 6H17.2002V4H10.2002V2H8.2002V4H1.2002V5.99H12.3702C11.7002 7.92 10.6402 9.75 9.2002 11.35C8.2702 10.32 7.5002 9.19 6.8902 8H4.8902C5.6202 9.63 6.6202 11.17 7.8702 12.56L2.7802 17.58L4.2002 19L9.2002 14L12.3102 17.11L13.0702 15.07ZM18.7002 10H16.7002L12.2002 22H14.2002L15.3202 19H20.0702L21.2002 22H23.2002L18.7002 10ZM16.0802 17L17.7002 12.67L19.3202 17H16.0802Z" fill="#006557"/>
</g>
</svg>
